M48
;Layer_Color=9474304
;FILE_FORMAT=4:4
METRIC,LZ
;TYPE=PLATED
T01F00S00C0.7112
T02F00S00C0.8000
T03F00S00C0.8500
T04F00S00C0.9000
T05F00S00C1.0200
T06F00S00C1.0668
T07F00S00C1.1000
T08F00S00C4.5000
%
T01
X00629158Y00212598
X00724408Y00283124
X00515366Y00366522
X00482092Y00211582
X00277368Y00087376
X0014986Y00017272
X00086106Y00115062
X00065532Y0019431
T02
X00562356Y00058928
X00587756
X00613156
X00638556
X00663956
X00689356
X0009271Y00350266
X0006731
T03
X00043942Y00011756
Y00096956
T04
X00063754Y00145604
Y00171704
T05
X00769366Y00097282
Y00122682
Y00148082
T06
X00023474Y00123204
Y00194204
T07
X00282956Y00035052
X00308356
X00333756
X00359156
X00384556
X00409956
T08
X00169418Y0004572
X00170796Y00329076
X00470554Y0032893
X00469538Y00045574
M30
