M48
;Layer_Color=9474304
;FILE_FORMAT=4:4
METRIC,LZ
;TYPE=PLATED
T03F00S00C0.7112
T04F00S00C0.8000
T05F00S00C0.8500
T06F00S00C0.9500
T07F00S00C1.0200
T08F00S00C1.1000
T09F00S00C4.5000
%
T03
X00964946Y00000762
X00963676Y00022352
X00959612Y00263312
X01004824Y00240284
X00888746Y00199898
X00808228Y0020701
X00765048Y00335788
X0075057Y0034671
X00738378Y0026289
X00737856Y00229856
X00343228Y00187452
X00320747Y00200461
X00255778Y00168402
X00254508Y00150368
X00174244Y00150622
X00175856Y00169306
X00283464Y00080956
X00320548Y00056134
Y0003175
T04
X0079756Y00039116
X0082296
X0084836
X0087376
X0089916
X0092456
X00218948Y00332994
X00193548
T05
X00186762Y00005842
X00271962
T06
X00353568Y0029337
Y0031877
X00340868Y0030607
X00288798Y00295402
X00276098Y00282702
X00288798Y00270002
T07
X0100457Y0007747
Y0010287
Y0012827
T08
X0051816Y0001524
X0054356
X0056896
X0059436
X0061976
X0064516
T09
X00404622Y00025908
X00406Y00309264
X00705758Y00309118
X00704742Y00025762
M30
