%FSTAX23Y23*%
%MOIN*%
%SFA1B1*%

%IPPOS*%
%AMD36*
4,1,8,0.015700,0.031500,-0.015700,0.031500,-0.031500,0.015700,-0.031500,-0.015700,-0.015700,-0.031500,0.015700,-0.031500,0.031500,-0.015700,0.031500,0.015700,0.015700,0.031500,0.0*
1,1,0.031496,0.015700,0.015700*
1,1,0.031496,-0.015700,0.015700*
1,1,0.031496,-0.015700,-0.015700*
1,1,0.031496,0.015700,-0.015700*
%
%ADD12C,0.010000*%
%ADD23R,0.051181X0.051181*%
%ADD24C,0.051181*%
%ADD25R,0.053150X0.053150*%
%ADD26C,0.053150*%
%ADD32C,0.060000*%
%ADD33R,0.061024X0.061024*%
%ADD34C,0.061024*%
%ADD35C,0.062992*%
G04~CAMADD=36~8~0.0~0.0~629.9~629.9~157.5~0.0~15~0.0~0.0~0.0~0.0~0~0.0~0.0~0.0~0.0~0~0.0~0.0~0.0~0.0~629.9~629.9*
%ADD36D36*%
%ADD37C,0.050000*%
%LNpcb1-1*%
%LPD*%
G54D12*
X01095Y00341D02*
X0132D01*
X01092Y00344D02*
X01095Y00341D01*
X01314Y00335D02*
X0132Y00341D01*
X00339Y00453D02*
Y00684D01*
X00258Y00765D02*
X00339Y00684D01*
X00557Y00046D02*
X00579Y00068D01*
X0059*
X00173Y00046D02*
X00557D01*
X00358Y01386D02*
X00365Y01379D01*
X00358Y01386D02*
Y01441D01*
X00173Y00381D02*
Y00598D01*
X00251Y00676*
X00363Y01447D02*
X02025D01*
X00358Y01441D02*
X00363Y01447D01*
X02025D02*
X02029Y01443D01*
X02475Y00837D02*
X02477D01*
X02471Y00833D02*
X02475Y00837D01*
X01898Y00833D02*
X02471D01*
X01214Y00138D02*
X0126Y00091D01*
X01333*
X01364Y00122*
X01394Y00184D02*
X01633D01*
X01364Y00153D02*
X01394Y00184D01*
X01364Y00122D02*
Y00153D01*
X0132Y00341D02*
X02505D01*
X01314Y00138D02*
Y00335D01*
X02794Y00075D02*
X02845Y00126D01*
X01633Y00184D02*
X01741Y00075D01*
X02794*
X02845Y00126D02*
Y01107D01*
X02852Y01114*
X02505Y00341D02*
X02614Y00232D01*
X02714*
G54D23*
X02214Y00232D03*
G54D24*
X00365Y01379D03*
X00265D03*
X02314Y00232D03*
X02414D03*
X02514D03*
X02614D03*
X02714D03*
G54D25*
X00173Y00046D03*
G54D26*
X00173Y00381D03*
G54D32*
X00092Y00485D03*
X00251Y00573D03*
Y00676D03*
X00092Y00764D03*
X01848Y00179D03*
X00667Y0018D03*
X01852Y01295D03*
X00672Y01295D03*
G54D33*
X03029Y00583D03*
G54D34*
X03029Y00483D03*
Y00383D03*
G54D35*
X01414Y00138D03*
X01214D03*
X01314D03*
X01514D03*
X01614D03*
G54D36*
X01114Y00138D03*
G54D37*
X01092Y00344D03*
X00258Y00765D03*
X00339Y00453D03*
X0059Y00068D03*
X02477Y00837D03*
X01898Y00833D03*
X02029Y01443D03*
X02852Y01114D03*
M02*