%FSTAX23Y23*%
%MOIN*%
%SFA1B1*%

%IPPOS*%
%AMD18*
4,1,8,0.017200,-0.002600,0.017200,0.002600,0.000000,0.019800,0.000000,0.019800,-0.017200,0.002600,-0.017200,-0.002600,0.000000,-0.019800,0.000000,-0.019800,0.017200,-0.002600,0.0*
1,1,0.034339,0.000000,-0.002600*
1,1,0.034339,0.000000,0.002600*
1,1,0.034339,0.000000,0.002600*
1,1,0.034339,0.000000,-0.002600*
%
%AMD19*
4,1,8,0.062600,-0.002600,0.062600,0.002600,0.045400,0.019800,-0.045400,0.019800,-0.062600,0.002600,-0.062600,-0.002600,-0.045400,-0.019800,0.045400,-0.019800,0.062600,-0.002600,0.0*
1,1,0.034402,0.045400,-0.002600*
1,1,0.034402,0.045400,0.002600*
1,1,0.034402,-0.045400,0.002600*
1,1,0.034402,-0.045400,-0.002600*
%
%AMD36*
4,1,8,0.015700,0.031500,-0.015700,0.031500,-0.031500,0.015700,-0.031500,-0.015700,-0.015700,-0.031500,0.015700,-0.031500,0.031500,-0.015700,0.031500,0.015700,0.015700,0.031500,0.0*
1,1,0.031496,0.015700,0.015700*
1,1,0.031496,-0.015700,0.015700*
1,1,0.031496,-0.015700,-0.015700*
1,1,0.031496,0.015700,-0.015700*
%
%ADD12C,0.010000*%
%ADD13R,0.086614X0.043307*%
%ADD14R,0.125984X0.125984*%
%ADD15R,0.047500X0.042055*%
%ADD16R,0.031496X0.039370*%
%ADD17R,0.034335X0.039539*%
G04~CAMADD=18~8~0.0~0.0~395.4~343.3~171.7~0.0~15~0.0~0.0~0.0~0.0~0~0.0~0.0~0.0~0.0~0~0.0~0.0~0.0~270.0~344.0~395.0*
%ADD18D18*%
G04~CAMADD=19~8~0.0~0.0~395.4~1252.8~172.0~0.0~15~0.0~0.0~0.0~0.0~0~0.0~0.0~0.0~0.0~0~0.0~0.0~0.0~270.0~1254.0~395.0*
%ADD19D19*%
%ADD23R,0.051181X0.051181*%
%ADD24C,0.051181*%
%ADD25R,0.053150X0.053150*%
%ADD26C,0.053150*%
%ADD32C,0.060000*%
%ADD33R,0.061024X0.061024*%
%ADD34C,0.061024*%
%ADD35C,0.062992*%
G04~CAMADD=36~8~0.0~0.0~629.9~629.9~157.5~0.0~15~0.0~0.0~0.0~0.0~0~0.0~0.0~0.0~0.0~0~0.0~0.0~0.0~0.0~629.9~629.9*
%ADD36D36*%
%ADD37C,0.050000*%
%LNpcb1-1*%
%LPD*%
G54D12*
X02765Y00488D02*
Y0072D01*
Y00483D02*
Y00488D01*
X02768Y00483D02*
X03029D01*
X02765Y00283D02*
Y00483D01*
X00492Y00354D02*
X00502Y00344D01*
X01092*
X01714Y00836D02*
X01895D01*
X01114Y00138D02*
Y00236D01*
X01714Y00836*
X00362Y00559D02*
X0048Y00441D01*
X00344Y0087D02*
X00345D01*
X00362Y00559D02*
Y00853D01*
X00348Y0087D02*
Y01081D01*
Y00573D02*
X00362Y00559D01*
X00345Y0087D02*
X00362Y00853D01*
X00258Y00849D02*
X0026Y00851D01*
X00258Y00765D02*
Y00849D01*
X00276Y0087D02*
X00278D01*
X0026Y00853D02*
X00276Y0087D01*
X0026Y00851D02*
Y00853D01*
X00402Y00354D02*
Y00357D01*
X00346Y00413D02*
X00402Y00357D01*
X00346Y00413D02*
Y00445D01*
X00339Y00453D02*
X00346Y00445D01*
X00206Y00463D02*
X00311Y00357D01*
X00206Y00463D02*
Y0108D01*
X00311Y00354D02*
Y00357D01*
Y00185D02*
Y00354D01*
X00348Y00573D02*
D01*
X00206Y0108D02*
Y0132D01*
X00207Y01079D02*
X0028D01*
X00206Y0108D02*
X00207Y01079D01*
X0034Y0118D02*
X00345Y01175D01*
Y01079D02*
Y01175D01*
X00402Y00095D02*
Y00354D01*
X0059Y00055D02*
X01408D01*
X00367Y00023D02*
X02508D01*
X00173Y00046D02*
X00311Y00185D01*
X00278Y0087D02*
Y00987D01*
X00206Y0132D02*
X00265Y01379D01*
X00281Y0118D02*
Y01295D01*
X00365Y01379*
X0048Y00366D02*
X00492Y00354D01*
X0048Y00366D02*
Y00441D01*
X02508Y00023D02*
X02514Y00028D01*
X00361D02*
X00367Y00023D01*
X02514Y00028D02*
Y00232D01*
X00361Y00028D02*
Y00081D01*
X00375Y00095*
X00402*
X00251Y00573D02*
X00348D01*
X01895Y00836D02*
X01898Y00833D01*
X01978Y0061D02*
X02145Y00444D01*
X02477Y00837D02*
X02675Y01035D01*
X02765*
X02314Y01152D02*
X02434Y01272D01*
X02765*
X02314Y00232D02*
Y01152D01*
X01978Y0061D02*
Y01114D01*
X02714Y00232D02*
X02765Y00283D01*
X02473Y00191D02*
X02514Y00232D01*
X01408Y00055D02*
X01414Y0006D01*
Y00138*
X02255Y00442D02*
Y00667D01*
Y00218D02*
Y00442D01*
X02201Y00446D02*
X02251D01*
X02255Y00442*
X02767Y00955D02*
X02878D01*
X02934D02*
X03023D01*
X03029Y00583D02*
Y00949D01*
X03023Y00955D02*
X03029Y00949D01*
X01981Y01113D02*
X02141D01*
X02142Y01114*
X02414Y00886D02*
X02721Y01193D01*
X02765*
X02414Y00232D02*
Y00886D01*
X02027Y01441D02*
X02029Y01443D01*
X02027Y0121D02*
Y01441D01*
X02765Y00957D02*
X02767Y00955D01*
X02743Y00957D02*
X02765D01*
X02572Y00786D02*
X02743Y00957D01*
X02142Y0072D02*
X02202D01*
X02255Y00667*
Y00218D02*
X02282Y00191D01*
X02473*
X02513Y00436D02*
X02514Y00435D01*
Y00232D02*
Y00435D01*
X02765Y01114D02*
X02852D01*
X02027Y0121D02*
X02044Y01193D01*
X02142*
X02572Y00436D02*
Y00786D01*
G54D13*
X02142Y01272D03*
Y01193D03*
Y01114D03*
Y01035D03*
Y00957D03*
Y00878D03*
Y00799D03*
Y0072D03*
X02765D03*
Y00799D03*
Y00878D03*
Y00957D03*
Y01035D03*
Y01114D03*
Y01193D03*
Y01272D03*
G54D14*
X02461Y01108D03*
G54D15*
X00278Y00987D03*
X00344D03*
X00344Y0087D03*
X00279D03*
X00345Y01079D03*
X0028D03*
G54D16*
X00281Y0118D03*
X0034D03*
X02201Y00446D03*
X02141D03*
X02937Y00955D03*
X02878D03*
X02513Y00436D03*
X02572D03*
G54D17*
X00492Y00354D03*
G54D18*
X00402Y00354D03*
X00311D03*
G54D19*
X00402Y00095D03*
G54D23*
X02214Y00232D03*
G54D24*
X00365Y01379D03*
X00265D03*
X02314Y00232D03*
X02414D03*
X02514D03*
X02614D03*
X02714D03*
G54D25*
X00173Y00046D03*
G54D26*
X00173Y00381D03*
G54D32*
X00092Y00485D03*
X00251Y00573D03*
Y00676D03*
X00092Y00764D03*
X01848Y00179D03*
X00667Y0018D03*
X01852Y01295D03*
X00672Y01295D03*
G54D33*
X03029Y00583D03*
G54D34*
X03029Y00483D03*
Y00383D03*
G54D35*
X01414Y00138D03*
X01214D03*
X01314D03*
X01514D03*
X01614D03*
G54D36*
X01114Y00138D03*
G54D37*
X01092Y00344D03*
X00258Y00765D03*
X00339Y00453D03*
X0059Y00068D03*
X02477Y00837D03*
X01898Y00833D03*
X02029Y01443D03*
X02852Y01114D03*
M02*